<?xml version="1.0" encoding="utf-8"?>
<!-- Generator: Adobe Illustrator 27.1.1, SVG Export Plug-In . SVG Version: 6.00 Build 0)  -->
<svg version="1.1" id="Capa_1" xmlns="http://www.w3.org/2000/svg" xmlns:xlink="http://www.w3.org/1999/xlink" x="0px" y="0px"
	 viewBox="0 0 450 140" style="enable-background:new 0 0 450 140;" xml:space="preserve">
<style type="text/css">
	.st0{fill:#1C3661;}
	.st1{fill:#F4B909;}
	.st2{fill:#DAA521;}
	.st3{fill:#248B37;}
</style>
<g>
	<g>
		<polygon class="st0" points="125,50.6 110.2,50.6 110.2,36 101.8,36 101.8,73.4 110.2,73.4 110.2,57.8 125,57.8 125,73.4 
			133.4,73.4 133.4,36 125,36 		"/>
		<path class="st0" d="M172.4,40.9c-1.8-1.8-3.9-3.1-6.3-4.1c-2.4-1-5-1.5-7.8-1.5c-2.8,0-5.4,0.5-7.8,1.5c-2.4,1-4.5,2.3-6.2,4.1
			c-1.8,1.8-3.1,3.8-4.1,6.1c-1,2.3-1.5,4.9-1.5,7.6c0,2.7,0.5,5.3,1.5,7.6c1,2.4,2.4,4.4,4.2,6.2c1.8,1.8,3.9,3.1,6.3,4.1
			s5,1.5,7.8,1.5c2.8,0,5.3-0.5,7.7-1.5c2.4-1,4.5-2.4,6.2-4.1c1.8-1.8,3.1-3.8,4.1-6.2c1-2.4,1.5-4.9,1.5-7.6
			c0-2.8-0.5-5.3-1.5-7.7C175.6,44.7,174.2,42.6,172.4,40.9z M168.1,60.8c-0.9,1.8-2.2,3.2-3.9,4.2c-1.7,1-3.6,1.5-5.9,1.5
			c-1.7,0-3.2-0.3-4.6-0.8c-1.4-0.6-2.6-1.4-3.5-2.4c-1-1-1.7-2.3-2.3-3.7c-0.5-1.5-0.8-3.1-0.8-4.8c0-2.4,0.5-4.4,1.4-6.2
			c0.9-1.8,2.2-3.1,3.9-4.1c1.7-1,3.6-1.5,5.9-1.5c1.7,0,3.2,0.3,4.5,0.8c1.4,0.5,2.5,1.3,3.5,2.4c1,1,1.8,2.3,2.3,3.7
			c0.5,1.4,0.8,3,0.8,4.8C169.5,57,169,59.1,168.1,60.8z"/>
		<path class="st0" d="M205.1,56.6c1.9-0.9,3.4-2.2,4.5-3.8c1.1-1.6,1.6-3.6,1.6-5.8c0-2.2-0.5-4.1-1.6-5.7c-1.1-1.7-2.5-3-4.4-3.9
			c-1.9-0.9-4.1-1.4-6.5-1.4h-7h-2h-6.4v37.5h8.3V58h0.9l11.2,15.4h9.9l-12-15.7C202.9,57.5,204,57.1,205.1,56.6z M191.7,42.4h6
			c1.7,0,2.9,0.4,3.8,1.3c0.9,0.9,1.3,2,1.3,3.3c0,1.5-0.5,2.6-1.4,3.4c-0.9,0.8-2.2,1.3-3.8,1.3h-5.9V42.4z"/>
		<rect x="217.2" y="36" class="st0" width="8.3" height="37.5"/>
		<polygon class="st0" points="231.8,43.1 248.6,43.1 230.7,67.6 230.7,73.4 259.2,73.4 259.2,66.3 241.7,66.3 259.7,41.8 259.7,36 
			231.8,36 		"/>
		<path class="st0" d="M295.7,40.9c-1.8-1.8-3.9-3.1-6.3-4.1c-2.4-1-5-1.5-7.8-1.5c-2.8,0-5.4,0.5-7.8,1.5c-2.4,1-4.5,2.3-6.2,4.1
			c-1.8,1.8-3.1,3.8-4.1,6.1c-1,2.3-1.5,4.9-1.5,7.6c0,2.7,0.5,5.3,1.5,7.6c1,2.4,2.4,4.4,4.2,6.2c1.8,1.8,3.9,3.1,6.3,4.1
			s5,1.5,7.8,1.5c2.8,0,5.3-0.5,7.7-1.5c2.4-1,4.5-2.4,6.2-4.1c1.8-1.8,3.1-3.8,4.1-6.2c1-2.4,1.5-4.9,1.5-7.6
			c0-2.8-0.5-5.3-1.5-7.7C298.9,44.7,297.5,42.6,295.7,40.9z M291.4,60.8c-0.9,1.8-2.2,3.2-3.9,4.2c-1.7,1-3.6,1.5-5.9,1.5
			c-1.7,0-3.2-0.3-4.6-0.8c-1.4-0.6-2.6-1.4-3.5-2.4c-1-1-1.7-2.3-2.3-3.7c-0.5-1.5-0.8-3.1-0.8-4.8c0-2.4,0.5-4.4,1.4-6.2
			c0.9-1.8,2.2-3.1,3.9-4.1c1.7-1,3.6-1.5,5.9-1.5c1.7,0,3.2,0.3,4.5,0.8c1.4,0.5,2.5,1.3,3.5,2.4c1,1,1.8,2.3,2.3,3.7
			s0.8,3,0.8,4.8C292.8,57,292.3,59.1,291.4,60.8z"/>
		<polygon class="st0" points="330.3,58.8 312.5,36 306.6,36 306.6,73.4 315,73.4 315,51 332.5,73.4 338.6,73.4 338.6,36 330.3,36 
					"/>
		<polygon class="st0" points="343.3,43.2 355,43.2 355,73.4 363.3,73.4 363.3,43.2 375.1,43.2 375.1,36 343.3,36 		"/>
		<polygon class="st0" points="388.1,57.8 404.8,57.8 404.8,50.8 388.1,50.8 388.1,43.1 406.4,43.1 406.4,36 388.1,36 386.1,36 
			379.7,36 379.7,73.4 386.1,73.4 388.1,73.4 406.6,73.4 406.6,66.2 388.1,66.2 		"/>
		<path class="st0" d="M436.1,57.7c-0.6-1.3-1.5-2.4-2.5-3.3c-1-0.9-2.2-1.6-3.4-2.1c-1.2-0.6-2.5-1.1-3.7-1.5
			c-1.3-0.4-2.4-0.8-3.5-1.3c-1-0.4-1.9-0.9-2.5-1.5c-0.6-0.6-1-1.4-1-2.3c0-1,0.4-1.8,1.3-2.4c0.8-0.5,2-0.8,3.4-0.8
			c1.5,0,2.8,0.3,3.9,0.8c1.1,0.6,2.3,1.4,3.4,2.6l5.4-5.4c-1.4-1.6-3.2-2.8-5.4-3.8c-2.2-0.9-4.6-1.4-7.2-1.4
			c-2.6,0-4.9,0.4-6.8,1.3c-2,0.9-3.5,2.1-4.6,3.8c-1.1,1.7-1.7,3.6-1.7,5.9c0,1.9,0.3,3.5,1,4.8c0.6,1.3,1.5,2.3,2.5,3.1
			c1,0.8,2.2,1.5,3.4,2.1c1.2,0.5,2.5,1,3.7,1.5c1.3,0.4,2.4,0.9,3.5,1.3c1,0.5,1.9,1,2.5,1.6c0.6,0.6,1,1.5,1,2.5
			c0,1.1-0.5,2-1.5,2.7c-1,0.6-2.3,1-4.1,1c-1.9,0-3.7-0.4-5.1-1.1c-1.5-0.8-2.8-1.8-4-3.2l-5.4,5.4c1.8,2.1,3.9,3.6,6.1,4.6
			c2.2,1,4.9,1.5,7.9,1.5c4.5,0,8-1,10.6-3.1c2.5-2,3.8-4.8,3.8-8.4C437.1,60.6,436.7,59,436.1,57.7z"/>
	</g>
	<g>
		<path class="st0" d="M160.3,107.8c-1.2,0.5-2.7,0.8-4.4,0.8c-1.4,0-2.7-0.2-3.9-0.7c-1.2-0.5-2.2-1.2-3.1-2.1
			c-0.9-0.9-1.5-2-2-3.3c-0.5-1.3-0.7-2.7-0.7-4.2c0-1.5,0.2-2.9,0.7-4.2c0.5-1.3,1.1-2.4,2-3.3c0.9-0.9,1.9-1.6,3.1-2.1
			c1.2-0.5,2.5-0.7,3.9-0.7c1.6,0,3,0.3,4.3,0.8c1.2,0.5,2.3,1.3,3.1,2.2l4.9-4.9c-1.5-1.5-3.3-2.6-5.3-3.4c-2-0.8-4.3-1.3-6.9-1.3
			c-2.4,0-4.7,0.4-6.8,1.3c-2.1,0.9-3.9,2-5.5,3.6c-1.5,1.5-2.8,3.3-3.6,5.4c-0.9,2.1-1.3,4.3-1.3,6.7c0,2.4,0.4,4.6,1.3,6.7
			c0.9,2.1,2.1,3.9,3.6,5.4c1.6,1.5,3.4,2.8,5.5,3.6c2.1,0.9,4.4,1.3,6.8,1.3c2.7,0,5-0.4,7-1.3c2-0.8,3.8-2,5.4-3.4l-4.9-4.9
			C162.6,106.6,161.6,107.3,160.3,107.8z"/>
		<path class="st0" d="M182.2,81.9l-13,32.8h7.6l2.2-5.9h12.9l2.2,5.9h7.7l-12.9-32.8H182.2z M181.1,102.8l4.3-11.7l4.2,11.7H181.1z
			"/>
		<polygon class="st0" points="221.9,100 210.3,81.9 205.1,81.9 205.1,114.7 212.4,114.7 212.4,96.5 219.5,107.7 224.3,107.7 
			231.4,96.6 231.4,114.7 238.7,114.7 238.7,81.9 233.5,81.9 		"/>
		<path class="st0" d="M264.3,83.2c-1.7-0.8-3.5-1.3-5.6-1.3h-6.4h-1.7H245v32.8h7.3v-11.9h6.4c2.1,0,4-0.4,5.6-1.3
			c1.7-0.9,3-2.1,4-3.6c1-1.6,1.5-3.4,1.5-5.6s-0.5-4-1.5-5.6C267.3,85.2,266,84,264.3,83.2z M261.9,94.9c-0.4,0.7-1,1.3-1.8,1.6
			c-0.7,0.4-1.6,0.6-2.5,0.6h-5.3v-9.5h5.3c0.9,0,1.7,0.2,2.5,0.6s1.3,0.9,1.8,1.6c0.4,0.7,0.7,1.6,0.7,2.6
			C262.5,93.4,262.3,94.2,261.9,94.9z"/>
		<polygon class="st0" points="281.2,101 295.8,101 295.8,94.9 281.2,94.9 281.2,88.2 297.2,88.2 297.2,81.9 281.2,81.9 279.4,81.9 
			273.9,81.9 273.9,114.7 279.4,114.7 281.2,114.7 297.4,114.7 297.4,108.4 281.2,108.4 		"/>
		<path class="st0" d="M321,98c-0.9-0.8-1.9-1.4-3-1.9c-1.1-0.5-2.2-0.9-3.3-1.3c-1.1-0.4-2.1-0.7-3-1.1c-0.9-0.4-1.7-0.8-2.2-1.3
			c-0.6-0.5-0.8-1.2-0.8-2c0-0.9,0.4-1.6,1.1-2.1c0.7-0.5,1.8-0.7,3-0.7c1.3,0,2.4,0.2,3.4,0.7c1,0.5,2,1.3,3,2.3l4.7-4.7
			c-1.2-1.4-2.8-2.5-4.7-3.3c-1.9-0.8-4-1.2-6.3-1.2c-2.3,0-4.3,0.4-6,1.1c-1.7,0.8-3.1,1.9-4.1,3.3c-1,1.5-1.5,3.2-1.5,5.2
			c0,1.7,0.3,3.1,0.8,4.2c0.6,1.1,1.3,2,2.2,2.7c0.9,0.7,1.9,1.3,3,1.8c1.1,0.5,2.2,0.9,3.3,1.3c1.1,0.4,2.1,0.8,3,1.2
			c0.9,0.4,1.7,0.9,2.2,1.4c0.6,0.6,0.8,1.3,0.8,2.2c0,1-0.4,1.8-1.3,2.3c-0.9,0.6-2.1,0.8-3.6,0.8c-1.7,0-3.2-0.3-4.5-1
			c-1.3-0.7-2.5-1.6-3.5-2.8l-4.7,4.7c1.6,1.8,3.4,3.1,5.3,4c1.9,0.9,4.3,1.3,6.9,1.3c3.9,0,7-0.9,9.2-2.7c2.2-1.8,3.3-4.2,3.3-7.4
			c0-1.7-0.3-3.1-0.8-4.3C322.7,99.7,321.9,98.8,321,98z"/>
		<polygon class="st0" points="325.3,88.3 335.5,88.3 335.5,114.7 342.8,114.7 342.8,88.3 353.1,88.3 353.1,81.9 325.3,81.9 		"/>
		<path class="st0" d="M376.3,100c1.7-0.8,3-1.9,3.9-3.4c0.9-1.4,1.4-3.1,1.4-5c0-1.9-0.5-3.6-1.4-5c-0.9-1.5-2.2-2.6-3.9-3.4
			c-1.6-0.8-3.5-1.2-5.7-1.2h-6.1h-1.7h-5.6v32.8h7.3v-13.5h0.8l9.8,13.5h8.6L373.2,101C374.3,100.8,375.3,100.5,376.3,100z
			 M364.5,87.6h5.3c1.5,0,2.6,0.4,3.3,1.2c0.8,0.8,1.2,1.8,1.2,2.9c0,1.3-0.4,2.3-1.2,3c-0.8,0.7-1.9,1.1-3.4,1.1h-5.2V87.6z"/>
		<polygon class="st0" points="394.2,101 408.8,101 408.8,94.9 394.2,94.9 394.2,88.2 410.2,88.2 410.2,81.9 394.2,81.9 392.4,81.9 
			386.9,81.9 386.9,114.7 392.4,114.7 394.2,114.7 410.4,114.7 410.4,108.4 394.2,108.4 		"/>
		<path class="st0" d="M436.2,100.9c-0.6-1.2-1.3-2.1-2.2-2.9c-0.9-0.8-1.9-1.4-3-1.9c-1.1-0.5-2.2-0.9-3.3-1.3
			c-1.1-0.4-2.1-0.7-3-1.1c-0.9-0.4-1.7-0.8-2.2-1.3c-0.6-0.5-0.8-1.2-0.8-2c0-0.9,0.4-1.6,1.1-2.1c0.7-0.5,1.8-0.7,3-0.7
			c1.3,0,2.4,0.2,3.4,0.7c1,0.5,2,1.3,3,2.3l4.7-4.7c-1.2-1.4-2.8-2.5-4.7-3.3c-1.9-0.8-4-1.2-6.3-1.2c-2.3,0-4.3,0.4-6,1.1
			c-1.7,0.8-3.1,1.9-4.1,3.3c-1,1.5-1.5,3.2-1.5,5.2c0,1.7,0.3,3.1,0.8,4.2c0.6,1.1,1.3,2,2.2,2.7c0.9,0.7,1.9,1.3,3,1.8
			c1.1,0.5,2.2,0.9,3.3,1.3c1.1,0.4,2.1,0.8,3,1.2c0.9,0.4,1.7,0.9,2.2,1.4c0.6,0.6,0.8,1.3,0.8,2.2c0,1-0.4,1.8-1.3,2.3
			c-0.9,0.6-2.1,0.8-3.6,0.8c-1.7,0-3.2-0.3-4.5-1c-1.3-0.7-2.5-1.6-3.5-2.8l-4.7,4.7c1.6,1.8,3.4,3.1,5.3,4
			c1.9,0.9,4.3,1.3,6.9,1.3c3.9,0,7-0.9,9.2-2.7c2.2-1.8,3.3-4.2,3.3-7.4C437.1,103.5,436.8,102.1,436.2,100.9z"/>
	</g>
	<g>
		<path class="st1" d="M67,6.4c1.3-0.1,2.4,0.9,2.4,2.2l-0.4,32c-0.1,4-5.4,5.4-7.4,1.9L46.1,14.7c-0.6-1.1-0.2-2.5,1-3.1
			C53.3,8.9,60,7.1,67,6.4z"/>
		<path class="st1" d="M49.5,51.9L22.1,35.6c-1.1-0.7-1.4-2.1-0.6-3.2c4.1-5.6,9-10.5,14.6-14.5c1.1-0.8,2.6-0.4,3.2,0.7l15.6,28
			C56.9,50.1,52.9,54,49.5,51.9z"/>
		<path class="st1" d="M43.7,66.1l-31.9-0.5c-1.3,0-2.3-1.1-2.1-2.4c0.7-7,2.6-13.7,5.4-19.9c0.5-1.2,2-1.6,3.1-1l27.5,16.4
			C49.2,60.8,47.7,66.2,43.7,66.1z"/>
		<path class="st1" d="M99.6,11.9c1.2,0.5,1.6,2,1,3.1L84.1,42.6c-2.1,3.5-7.4,2-7.3-2.1l0.5-31.9c0-1.3,1.1-2.3,2.4-2.1
			C86.7,7.2,93.4,9.1,99.6,11.9z"/>
		<path class="st2" d="M92.7,69.9c0,0.4,0,0.9,0,1.3c-0.2,2.7-0.9,5.3-2.1,7.5c-0.4,0.7-0.8,1.4-1.2,2.1c-1.5,2.2-3.4,4.1-5.6,5.5
			c-0.7,0.4-1.4,0.8-2.1,1.2c-2.3,1.1-4.9,1.8-7.6,2c-0.4,0-0.7,0-1.1,0c-0.4,0-0.9,0-1.3,0c-2.7-0.2-5.2-0.9-7.5-2.1
			c-0.7-0.4-1.4-0.8-2.1-1.2c-2.2-1.5-4.1-3.4-5.5-5.6c-0.4-0.7-0.8-1.4-1.2-2.1c-1.1-2.3-1.8-4.9-2-7.6c0-0.4,0-0.7,0-1.1
			c0-0.4,0-0.9,0-1.3c0.2-2.7,0.9-5.2,2.1-7.5c0.4-0.7,0.8-1.4,1.2-2.1c1.5-2.2,3.4-4.1,5.6-5.5c0.7-0.4,1.4-0.8,2.1-1.2
			c2.3-1.1,4.9-1.8,7.6-2c0.4,0,0.7,0,1.1,0c0.4,0,0.9,0,1.3,0c2.7,0.2,5.3,0.9,7.5,2.1c0.7,0.4,1.4,0.8,2.1,1.2
			c2.2,1.5,4.1,3.4,5.5,5.6c0.4,0.7,0.8,1.4,1.2,2.1c1.1,2.3,1.8,4.9,2,7.6C92.7,69.1,92.7,69.5,92.7,69.9z"/>
		<path class="st3" d="M124,104.1c1.1,0.7,1.4,2.1,0.6,3.2c-4.5,6.2-10.2,11.6-16.7,15.9c-2.2,1.4-4.4,2.7-6.8,3.9
			c-7.5,3.7-15.8,5.9-24.5,6.4c-1.2,0.1-2.4,0.1-3.6,0.1c-1.4,0-2.8,0-4.3-0.1c-8.8-0.6-17-2.9-24.5-6.7c-2.3-1.2-4.6-2.5-6.8-4
			c-6.4-4.3-12-9.7-16.5-16c-0.8-1.1-0.4-2.6,0.7-3.2l27.7-15.5c3.1-1.8,7-1.4,9.8,0.8l13.9,11c5.4,4.3,13.1,4.1,18.3-0.4l5.2-4.5
			c2.9-2.5,7.1-2.9,10.3-0.9L124,104.1z"/>
	</g>
	<rect x="89.3" y="123" class="st3" width="351" height="2.8"/>
</g>
</svg>
